<svg width="9" height="15" viewBox="0 0 9 15" fill="none" xmlns="http://www.w3.org/2000/svg">
<path d="M8.03542 1.14204C8.22289 1.32956 8.3282 1.58387 8.3282 1.84904C8.3282 2.1142 8.22289 2.36851 8.03542 2.55604L3.08542 7.50604L8.03542 12.456C8.21758 12.6446 8.31837 12.8972 8.31609 13.1594C8.31381 13.4216 8.20864 13.6724 8.02324 13.8579C7.83783 14.0433 7.58702 14.1484 7.32482 14.1507C7.06262 14.153 6.81002 14.0522 6.62142 13.87L0.964417 8.21304C0.776946 8.02551 0.671631 7.7712 0.671631 7.50604C0.671631 7.24087 0.776946 6.98657 0.964417 6.79904L6.62142 1.14204C6.80895 0.954566 7.06325 0.849251 7.32842 0.849251C7.59358 0.849251 7.84789 0.954566 8.03542 1.14204Z" fill="white"/>
</svg>
