<svg width="20" height="20" viewBox="0 0 20 20" fill="none" xmlns="http://www.w3.org/2000/svg">
<path d="M6.61623 2.04518C6.38189 2.27959 6.25024 2.59748 6.25024 2.92893C6.25024 3.26039 6.38189 3.57827 6.61623 3.81268L12.8037 10.0002L6.61623 16.1877C6.38853 16.4234 6.26254 16.7392 6.26538 17.0669C6.26823 17.3947 6.39969 17.7082 6.63145 17.94C6.86321 18.1717 7.17673 18.3032 7.50448 18.306C7.83222 18.3089 8.14797 18.1829 8.38373 17.9552L15.455 10.8839C15.6893 10.6495 15.821 10.3316 15.821 10.0002C15.821 9.66873 15.6893 9.35084 15.455 9.11643L8.38373 2.04518C8.14932 1.81084 7.83143 1.6792 7.49998 1.6792C7.16852 1.6792 6.85064 1.81084 6.61623 2.04518Z" fill="#777C7A"/>
</svg>
