<svg width="31" height="31" viewBox="0 0 31 31" fill="none" xmlns="http://www.w3.org/2000/svg">
<g clip-path="url(#clip0_318_783)">
<path d="M13.9223 19.0526C15.1954 18.205 16.162 16.9702 16.679 15.5308C17.1961 14.0914 17.2363 12.5238 16.7935 11.0598C16.3508 9.59586 15.4486 8.31323 14.2206 7.40162C12.9925 6.49 11.5036 5.9978 9.97416 5.9978C8.4447 5.9978 6.95584 6.49 5.72775 7.40162C4.49966 8.31323 3.59755 9.59586 3.1548 11.0598C2.71206 12.5238 2.7522 14.0914 3.26928 15.5308C3.78636 16.9702 4.75293 18.205 6.02606 19.0526C3.72309 19.9014 1.75631 21.472 0.419171 23.5302C0.348896 23.6347 0.300083 23.7521 0.275569 23.8755C0.251055 23.999 0.25133 24.1261 0.276376 24.2495C0.301423 24.3729 0.350743 24.49 0.421468 24.5942C0.492194 24.6983 0.582915 24.7874 0.688357 24.8561C0.7938 24.9249 0.911861 24.9721 1.03568 24.9948C1.15949 25.0175 1.2866 25.0155 1.4096 24.9886C1.5326 24.9618 1.64904 24.9108 1.75217 24.8386C1.85529 24.7664 1.94303 24.6744 2.01028 24.568C2.8728 23.2414 4.05303 22.1513 5.4438 21.3967C6.83458 20.6421 8.39184 20.2468 9.97416 20.2468C11.5565 20.2468 13.1137 20.6421 14.5045 21.3967C15.8953 22.1513 17.0755 23.2414 17.938 24.568C18.0774 24.7751 18.2926 24.919 18.5372 24.9687C18.7818 25.0183 19.0361 24.9697 19.2451 24.8334C19.4542 24.697 19.6011 24.4839 19.6543 24.24C19.7074 23.9962 19.6625 23.7412 19.5291 23.5302C18.192 21.472 16.2252 19.9014 13.9223 19.0526ZM4.74961 13.1251C4.74961 12.0918 5.05602 11.0816 5.6301 10.2225C6.20418 9.3633 7.02015 8.69366 7.97481 8.29822C8.92947 7.90279 9.97995 7.79933 10.9934 8.00092C12.0069 8.20251 12.9378 8.7001 13.6685 9.43076C14.3991 10.1614 14.8967 11.0924 15.0983 12.1058C15.2999 13.1193 15.1964 14.1698 14.801 15.1244C14.4056 16.0791 13.7359 16.895 12.8768 17.4691C12.0176 18.0432 11.0075 18.3496 9.97416 18.3496C8.589 18.3481 7.26103 17.7971 6.28158 16.8177C5.30213 15.8382 4.75118 14.5102 4.74961 13.1251ZM29.7016 24.8447C29.4906 24.9823 29.2336 25.0304 28.9871 24.9785C28.7406 24.9267 28.5248 24.779 28.3871 24.568C27.5256 23.2407 26.3456 22.1501 24.9545 21.3957C23.5634 20.6414 22.0057 20.2473 20.4233 20.2495C20.1713 20.2495 19.9297 20.1494 19.7516 19.9712C19.5734 19.7931 19.4733 19.5515 19.4733 19.2995C19.4733 19.0476 19.5734 18.806 19.7516 18.6278C19.9297 18.4497 20.1713 18.3496 20.4233 18.3496C21.1926 18.3489 21.9524 18.1782 22.6482 17.8499C23.344 17.5215 23.9587 17.0435 24.4483 16.45C24.938 15.8565 25.2905 15.1622 25.4807 14.4167C25.6709 13.6712 25.6941 12.8929 25.5487 12.1373C25.4032 11.3818 25.0927 10.6677 24.6392 10.0462C24.1858 9.42456 23.6007 8.91078 22.9257 8.54153C22.2507 8.17227 21.5025 7.95667 20.7345 7.91011C19.9665 7.86355 19.1977 7.98718 18.483 8.27218C18.3665 8.32256 18.2411 8.34906 18.1141 8.35014C17.9872 8.35121 17.8613 8.32683 17.744 8.27843C17.6266 8.23003 17.5201 8.15861 17.4309 8.06837C17.3416 7.97813 17.2713 7.87091 17.2241 7.75304C17.177 7.63518 17.1539 7.50906 17.1564 7.38213C17.1588 7.25521 17.1866 7.13006 17.2382 7.01408C17.2898 6.8981 17.3642 6.79364 17.4568 6.70687C17.5495 6.6201 17.6586 6.55278 17.7777 6.5089C19.4133 5.8566 21.2325 5.83313 22.8844 6.44301C24.5363 7.05288 25.9038 8.2529 26.7231 9.81155C27.5424 11.3702 27.7555 13.177 27.3212 14.8835C26.8869 16.59 25.8361 18.0752 24.3713 19.0526C26.6743 19.9014 28.6411 21.472 29.9782 23.5302C30.1158 23.7412 30.164 23.9983 30.1121 24.2448C30.0602 24.4913 29.9125 24.707 29.7016 24.8447Z" fill="#13805A"/>
</g>
<defs>
<clipPath id="clip0_318_783">
<rect width="30.3974" height="30.3974" fill="white" transform="translate(0 0.30127)"/>
</clipPath>
</defs>
</svg>
