<svg width="33" height="33" viewBox="0 0 33 33" fill="none" xmlns="http://www.w3.org/2000/svg">
<path d="M2.75 2.75H22C24.5933 2.75 25.8885 2.75 26.6942 3.55575C27.5 4.3615 27.5 5.65675 27.5 8.25V16.5C27.5 19.0933 27.5 20.3885 26.6942 21.1942C25.8885 22 24.5933 22 22 22H12.375M13.75 8.9375H22M2.75 23.375V17.875C2.75 16.5784 2.75 15.9308 3.15287 15.5279C3.55575 15.125 4.20337 15.125 5.5 15.125H8.25M2.75 23.375H8.25M2.75 23.375V30.25M8.25 15.125V23.375M8.25 15.125H16.5M8.25 23.375V30.25" stroke="#13805A" stroke-width="1.5" stroke-linecap="round" stroke-linejoin="round"/>
<path d="M8.25 8.9375C8.25 9.66685 7.96027 10.3663 7.44454 10.882C6.92882 11.3978 6.22935 11.6875 5.5 11.6875C4.77065 11.6875 4.07118 11.3978 3.55546 10.882C3.03973 10.3663 2.75 9.66685 2.75 8.9375C2.75 8.20815 3.03973 7.50868 3.55546 6.99296C4.07118 6.47723 4.77065 6.1875 5.5 6.1875C6.22935 6.1875 6.92882 6.47723 7.44454 6.99296C7.96027 7.50868 8.25 8.20815 8.25 8.9375Z" stroke="#13805A" stroke-width="1.5" stroke-linecap="round" stroke-linejoin="round"/>
</svg>
