<svg width="25" height="31" viewBox="0 0 25 31" fill="none" xmlns="http://www.w3.org/2000/svg">
<path d="M0 4.25C1.85801e-05 3.59175 0.192554 2.94511 0.558254 2.37505C0.923955 1.805 1.44994 1.33162 2.08333 1.0025V26.75C2.08333 27.2473 2.30283 27.7242 2.69353 28.0758C3.08423 28.4275 3.61413 28.625 4.16667 28.625H20.8333C21.3859 28.625 21.9158 28.4275 22.3065 28.0758C22.6972 27.7242 22.9167 27.2473 22.9167 26.75V4.25C22.9167 3.75272 22.6972 3.27581 22.3065 2.92417C21.9158 2.57254 21.3859 2.375 20.8333 2.375H16.6667V0.5H20.8333C21.9384 0.5 22.9982 0.895088 23.7796 1.59835C24.561 2.30161 25 3.25544 25 4.25V26.75C25 27.7446 24.561 28.6984 23.7796 29.4016C22.9982 30.1049 21.9384 30.5 20.8333 30.5H4.16667C3.0616 30.5 2.00179 30.1049 1.22039 29.4016C0.438987 28.6984 0 27.7446 0 26.75V4.25ZM4.16667 0.5V12.6875C4.16667 12.8616 4.22054 13.0323 4.32224 13.1804C4.42394 13.3285 4.56946 13.4482 4.74249 13.526C4.91551 13.6039 5.10921 13.6368 5.30188 13.6212C5.49455 13.6056 5.67857 13.542 5.83333 13.4375L9.375 11.0469L12.9167 13.4375C13.0714 13.542 13.2555 13.6056 13.4481 13.6212C13.6408 13.6368 13.8345 13.6039 14.0075 13.526C14.1805 13.4482 14.3261 13.3285 14.4278 13.1804C14.5295 13.0323 14.5833 12.8616 14.5833 12.6875V0.5H4.16667ZM6.25 10.8125V2.375H12.5V10.8125L10 9.125C9.81969 9.00329 9.60039 8.9375 9.375 8.9375C9.14961 8.9375 8.93031 9.00329 8.75 9.125L6.25 10.8125Z" fill="#13805A"/>
</svg>
