<svg width="41" height="41" viewBox="0 0 41 41" fill="none" xmlns="http://www.w3.org/2000/svg">
<path d="M18.7916 22.2083V6.83325H20.5V22.2083H18.7916ZM32.4583 21.3541C32.4583 24.7522 31.1084 28.0111 28.7056 30.4139C26.3028 32.8167 23.0439 34.1666 19.6458 34.1666C16.2477 34.1666 12.9888 32.8167 10.586 30.4139C8.1832 28.0111 6.83331 24.7522 6.83331 21.3541C6.83331 16.7245 9.29331 12.6587 12.9833 10.4208L14.2304 11.6678C12.5042 12.628 11.0664 14.0326 10.0661 15.7358C9.06583 17.439 8.53947 19.3788 8.54165 21.3541C8.54165 24.2991 9.71155 27.1235 11.794 29.2059C13.8764 31.2883 16.7008 32.4583 19.6458 32.4583C22.5908 32.4583 25.4152 31.2883 27.4976 29.2059C29.5801 27.1235 30.75 24.2991 30.75 21.3541C30.75 17.1858 28.4608 13.5641 25.0612 11.6678L26.3083 10.4208C28.187 11.5606 29.74 13.1656 30.8173 15.0808C31.8946 16.996 32.4598 19.1567 32.4583 21.3541Z" fill="#13805A"/>
</svg>
