<svg width="33" height="32" viewBox="0 0 33 32" fill="none" xmlns="http://www.w3.org/2000/svg">
<path d="M32.2163 5.3272L16.8256 0.196964C16.6279 0.13096 16.4141 0.13096 16.2164 0.196964L0.825646 5.3272C0.63425 5.3911 0.467794 5.51357 0.349832 5.67727C0.23187 5.84098 0.168376 6.03764 0.168335 6.23942V19.065C0.168335 19.3201 0.26968 19.5648 0.450074 19.7452C0.630469 19.9256 0.875137 20.0269 1.13025 20.0269C1.38537 20.0269 1.63004 19.9256 1.81043 19.7452C1.99083 19.5648 2.09217 19.3201 2.09217 19.065V7.57328L8.29334 9.64141C7.51135 10.7971 6.98144 12.1045 6.7381 13.4785C6.49476 14.8525 6.54345 16.2623 6.88099 17.6163C7.21853 18.9702 7.83737 20.2379 8.69722 21.3369C9.55708 22.4359 10.6387 23.3415 11.8717 23.9949C8.78553 25.0417 6.10017 27.1355 4.17633 30.087C4.06574 30.2988 4.03795 30.5442 4.09835 30.7754C4.15875 31.0066 4.30303 31.207 4.50309 31.3376C4.70315 31.4683 4.94468 31.5198 5.18063 31.4821C5.41658 31.4444 5.63007 31.3203 5.77953 31.1339C8.25968 27.3359 12.1731 25.1572 16.521 25.1572C20.8688 25.1572 24.7822 27.3359 27.2624 31.1339C27.4109 31.3243 27.6257 31.4518 27.8639 31.4912C28.1021 31.5306 28.3465 31.4789 28.5484 31.3465C28.7503 31.214 28.895 31.0105 28.9538 30.7762C29.0125 30.542 28.9811 30.2943 28.8656 30.0822C26.9417 27.1355 24.2596 25.0417 21.1702 23.99C22.4026 23.336 23.4834 22.4298 24.3425 21.3305C25.2015 20.2312 25.8195 18.9634 26.1563 17.6095C26.4931 16.2556 26.541 14.846 26.2971 13.4724C26.0532 12.0987 25.5229 10.7918 24.7406 9.6366L32.2163 7.15164C32.4076 7.08764 32.5739 6.96513 32.6917 6.80143C32.8096 6.63773 32.873 6.44113 32.873 6.23942C32.873 6.03771 32.8096 5.84111 32.6917 5.67741C32.5739 5.51371 32.4076 5.3912 32.2163 5.3272ZM24.5369 15.2173C24.5375 16.4947 24.2328 17.7536 23.6483 18.8893C23.0637 20.025 22.2162 21.0046 21.1764 21.7464C20.1366 22.4883 18.9346 22.9709 17.6704 23.154C16.4063 23.3372 15.1167 23.2156 13.9091 22.7994C12.7015 22.3833 11.6108 21.6845 10.728 20.7614C9.84512 19.8383 9.19563 18.7176 8.83363 17.4927C8.47163 16.2677 8.40759 14.974 8.64686 13.7193C8.88613 12.4646 9.42177 11.2852 10.2092 10.2795L16.2164 12.2819C16.4141 12.3479 16.6279 12.3479 16.8256 12.2819L22.8327 10.2795C23.9387 11.6877 24.5389 13.4268 24.5369 15.2173ZM16.521 10.3564L4.17633 6.23942L16.521 2.12241L28.8656 6.23942L16.521 10.3564Z" fill="#13805A"/>
</svg>
