<svg width="30" height="31" viewBox="0 0 30 31" fill="none" xmlns="http://www.w3.org/2000/svg">
<path fill-rule="evenodd" clip-rule="evenodd" d="M15 2.0625C13.4253 2.0625 11.9151 2.68806 10.8016 3.80155C9.68807 4.91505 9.06251 6.42528 9.06251 8C9.06251 9.57472 9.68807 11.0849 10.8016 12.1984C11.9151 13.3119 13.4253 13.9375 15 13.9375C16.5747 13.9375 18.085 13.3119 19.1985 12.1984C20.312 11.0849 20.9375 9.57472 20.9375 8C20.9375 6.42528 20.312 4.91505 19.1985 3.80155C18.085 2.68806 16.5747 2.0625 15 2.0625ZM10.9375 8C10.9375 6.92256 11.3655 5.88925 12.1274 5.12738C12.8893 4.36551 13.9226 3.9375 15 3.9375C16.0775 3.9375 17.1108 4.36551 17.8726 5.12738C18.6345 5.88925 19.0625 6.92256 19.0625 8C19.0625 9.07744 18.6345 10.1108 17.8726 10.8726C17.1108 11.6345 16.0775 12.0625 15 12.0625C13.9226 12.0625 12.8893 11.6345 12.1274 10.8726C11.3655 10.1108 10.9375 9.07744 10.9375 8ZM15 15.8125C12.1088 15.8125 9.44376 16.47 7.47001 17.58C5.52501 18.675 4.06251 20.3325 4.06251 22.375V22.5025C4.06126 23.955 4.06001 25.7775 5.65876 27.08C6.44501 27.72 7.54626 28.1763 9.03376 28.4762C10.5238 28.7788 12.4675 28.9375 15 28.9375C17.5325 28.9375 19.475 28.7788 20.9675 28.4762C22.455 28.1763 23.555 27.72 24.3425 27.08C25.9413 25.7775 25.9388 23.955 25.9375 22.5025V22.375C25.9375 20.3325 24.475 18.675 22.5313 17.58C20.5563 16.47 17.8925 15.8125 15 15.8125ZM5.93751 22.375C5.93751 21.3113 6.71501 20.1562 8.38876 19.215C10.0338 18.29 12.3688 17.6875 15.0013 17.6875C17.6313 17.6875 19.9663 18.29 21.6113 19.215C23.2863 20.1562 24.0625 21.3113 24.0625 22.375C24.0625 24.01 24.0125 24.93 23.1575 25.625C22.695 26.0025 21.92 26.3712 20.595 26.6387C19.2738 26.9062 17.4675 27.0625 15 27.0625C12.5325 27.0625 10.725 26.9062 9.40501 26.6387C8.08001 26.3712 7.30501 26.0025 6.84251 25.6262C5.98751 24.93 5.93751 24.01 5.93751 22.375Z" fill="#13805A"/>
</svg>
