<svg width="92" height="45" viewBox="0 0 92 45" fill="none" xmlns="http://www.w3.org/2000/svg">
<path d="M17.3716 19.5376C17.8641 18.8293 18.3123 18.2012 18.7163 17.6533C19.1258 17.1055 19.5021 16.6296 19.8452 16.2256C20.1883 15.8161 20.5065 15.473 20.7998 15.1963C21.0986 14.9196 21.3864 14.6982 21.6631 14.5322C21.9453 14.3607 22.2248 14.2389 22.5015 14.167C22.7782 14.0951 23.0687 14.0591 23.373 14.0591C24.098 14.0591 24.4604 14.2915 24.4604 14.7563C24.4604 14.8172 24.4549 14.8892 24.4438 14.9722C24.4328 15.0552 24.4106 15.1354 24.3774 15.2129C24.3498 15.2904 24.3083 15.3568 24.2529 15.4121C24.1976 15.4674 24.1284 15.4951 24.0454 15.4951C23.9845 15.4951 23.9126 15.4647 23.8296 15.4038C23.7521 15.3429 23.6608 15.2765 23.5557 15.2046C23.4505 15.1271 23.3288 15.0579 23.1904 14.9971C23.0521 14.9307 22.8971 14.8975 22.7256 14.8975C22.5374 14.8975 22.3216 14.9749 22.0781 15.1299C21.8402 15.2848 21.5801 15.4951 21.2979 15.7607C21.0212 16.0264 20.7306 16.3363 20.4263 16.6904C20.1274 17.0391 19.8231 17.4098 19.5132 17.8027C20.3433 19.6953 21.0737 21.3361 21.7046 22.7251C22.341 24.1141 22.9193 25.2651 23.4395 26.1782C23.9652 27.0858 24.4494 27.7609 24.8921 28.2036C25.3348 28.6463 25.7803 28.8677 26.2285 28.8677C26.306 28.8677 26.3835 28.8566 26.4609 28.8345C26.5384 28.8123 26.6076 28.7874 26.6685 28.7598C26.7404 28.7321 26.8123 28.6961 26.8843 28.6519L27.0586 28.9756C26.9645 29.0309 26.8345 29.0973 26.6685 29.1748C26.508 29.2523 26.3143 29.3242 26.0874 29.3906C25.866 29.4626 25.6198 29.5234 25.3486 29.5732C25.0775 29.623 24.7869 29.6479 24.4771 29.6479C24.0509 29.6479 23.6553 29.5815 23.29 29.4487C22.9248 29.3159 22.5679 29.1001 22.2192 28.8013C21.8761 28.508 21.5358 28.1206 21.1982 27.6392C20.8662 27.1632 20.5176 26.5794 20.1523 25.8877C19.7926 25.196 19.4108 24.3908 19.0068 23.4722C18.6029 22.5535 18.1629 21.5021 17.687 20.3179L17.3716 20.791V25.9126C17.3716 26.3387 17.2581 26.6486 17.0312 26.8423C16.8099 27.036 16.4696 27.1328 16.0103 27.1328C15.5454 27.1328 15.2023 27.036 14.981 26.8423C14.7596 26.6486 14.6489 26.3387 14.6489 25.9126V15.9185C14.6489 15.7967 14.6351 15.6999 14.6074 15.6279C14.5798 15.556 14.541 15.5007 14.4912 15.4619C14.4414 15.4176 14.3805 15.39 14.3086 15.3789C14.2422 15.3623 14.1675 15.354 14.0845 15.354C13.9627 15.354 13.8105 15.3734 13.6279 15.4121C13.4508 15.4508 13.2627 15.509 13.0635 15.5864C12.8643 15.6639 12.6623 15.7607 12.4575 15.877C12.2583 15.9876 12.0785 16.1149 11.918 16.2588C11.763 16.4027 11.6357 16.5632 11.5361 16.7402C11.4365 16.9173 11.3867 17.1082 11.3867 17.313C11.3867 17.4901 11.4089 17.6312 11.4531 17.7363C11.5029 17.8415 11.5583 17.9217 11.6191 17.9771C11.68 18.0269 11.7409 18.0601 11.8018 18.0767C11.8682 18.0877 11.9152 18.0933 11.9429 18.0933C12.0812 18.0933 12.1947 18.0711 12.2832 18.0269C12.3717 17.9771 12.452 17.9272 12.5239 17.8774C12.5959 17.8221 12.6623 17.7723 12.7231 17.728C12.7896 17.6782 12.8643 17.6533 12.9473 17.6533C13.0137 17.6533 13.0828 17.6699 13.1548 17.7031C13.2323 17.7308 13.3014 17.7778 13.3623 17.8442C13.4287 17.9106 13.484 17.9992 13.5283 18.1099C13.5726 18.215 13.5947 18.3451 13.5947 18.5C13.5947 18.7214 13.5505 18.9123 13.4619 19.0728C13.3789 19.2332 13.2682 19.3688 13.1299 19.4795C12.9971 19.5846 12.8421 19.6649 12.665 19.7202C12.4935 19.77 12.3219 19.7949 12.1504 19.7949C11.8848 19.7949 11.644 19.7507 11.4282 19.6621C11.2179 19.568 11.0381 19.4408 10.8887 19.2803C10.7393 19.1198 10.6258 18.9316 10.5483 18.7158C10.4709 18.5 10.4321 18.2703 10.4321 18.0269C10.4321 17.645 10.5013 17.2964 10.6396 16.981C10.778 16.66 10.9661 16.3722 11.2041 16.1177C11.4476 15.8631 11.7298 15.6418 12.0508 15.4536C12.3773 15.2599 12.7287 15.0994 13.105 14.9722C13.4813 14.8449 13.8742 14.7508 14.2837 14.6899C14.6932 14.6235 15.1027 14.5903 15.5122 14.5903C15.966 14.5903 16.3174 14.6346 16.5664 14.7231C16.821 14.8062 17.0063 14.9085 17.1226 15.0303C17.2443 15.152 17.3162 15.2793 17.3384 15.4121C17.3605 15.5449 17.3716 15.6556 17.3716 15.7441V19.5376ZM29.1172 22.7002C29.1172 22.5618 29.0729 22.4567 28.9844 22.3848C28.8958 22.3128 28.7824 22.2769 28.644 22.2769C28.4504 22.2769 28.265 22.3211 28.0879 22.4097C27.9163 22.4982 27.7642 22.6283 27.6313 22.7998C27.4985 22.9714 27.3934 23.1844 27.3159 23.439C27.2384 23.688 27.1997 23.9785 27.1997 24.3105C27.1997 24.6315 27.2218 24.8971 27.2661 25.1074C27.3159 25.3177 27.3796 25.4865 27.457 25.6138C27.54 25.7355 27.6341 25.8213 27.7393 25.8711C27.8444 25.9209 27.9551 25.9458 28.0713 25.9458C28.2152 25.9458 28.3507 25.9098 28.478 25.8379C28.6053 25.7604 28.716 25.6636 28.8101 25.5474C28.9041 25.4312 28.9788 25.3011 29.0342 25.1572C29.0895 25.0133 29.1172 24.8695 29.1172 24.7256V22.7002ZM27.7974 19.0645C27.6092 19.0645 27.4349 19.0866 27.2744 19.1309C27.1139 19.1751 26.9756 19.2305 26.8594 19.2969C26.7432 19.3633 26.6519 19.438 26.5854 19.521C26.519 19.5985 26.4858 19.6732 26.4858 19.7451C26.4858 19.8281 26.5273 19.889 26.6104 19.9277C26.6989 19.9609 26.7957 20.0024 26.9009 20.0522C27.006 20.0965 27.1001 20.1629 27.1831 20.2515C27.2716 20.3345 27.3159 20.4645 27.3159 20.6416C27.3159 20.7578 27.291 20.8657 27.2412 20.9653C27.1969 21.0594 27.1333 21.1452 27.0503 21.2227C26.9728 21.2946 26.8787 21.3527 26.7681 21.397C26.6629 21.4357 26.5522 21.4551 26.436 21.4551C26.1261 21.4551 25.8743 21.3499 25.6807 21.1396C25.4925 20.9294 25.3984 20.6499 25.3984 20.3013C25.3984 19.9637 25.487 19.6759 25.6641 19.438C25.8411 19.1945 26.0708 18.9953 26.353 18.8403C26.6408 18.6854 26.9645 18.5719 27.3242 18.5C27.6839 18.4225 28.0436 18.3838 28.4033 18.3838C28.835 18.3838 29.2472 18.4308 29.6401 18.5249C30.033 18.619 30.3789 18.7684 30.6777 18.9731C30.9821 19.1779 31.2228 19.438 31.3999 19.7534C31.5825 20.0688 31.6738 20.4507 31.6738 20.8989V25.5889C31.6738 25.6387 31.6766 25.694 31.6821 25.7549C31.6877 25.8158 31.7015 25.8711 31.7236 25.9209C31.7458 25.9707 31.779 26.0122 31.8232 26.0454C31.8675 26.0786 31.9312 26.0952 32.0142 26.0952C32.1138 26.0952 32.2051 26.0592 32.2881 25.9873C32.3766 25.9098 32.4541 25.8324 32.5205 25.7549L32.728 25.9292C32.645 26.0454 32.5454 26.1727 32.4292 26.311C32.313 26.4494 32.1719 26.5794 32.0059 26.7012C31.8398 26.8229 31.6462 26.9253 31.4248 27.0083C31.2035 27.0913 30.9517 27.1328 30.6694 27.1328C30.3208 27.1328 30.0109 27.0304 29.7397 26.8257C29.4686 26.6154 29.2915 26.2944 29.2085 25.8628C29.0314 26.1007 28.846 26.3 28.6523 26.4604C28.4642 26.6209 28.2705 26.751 28.0713 26.8506C27.8721 26.9502 27.6701 27.0221 27.4653 27.0664C27.2661 27.1107 27.0641 27.1328 26.8594 27.1328C26.5938 27.1328 26.3364 27.0913 26.0874 27.0083C25.8384 26.9253 25.6143 26.7952 25.415 26.6182C25.2214 26.4355 25.0636 26.2004 24.9419 25.9126C24.8257 25.6248 24.7676 25.2734 24.7676 24.8584C24.7676 24.3548 24.8672 23.9425 25.0664 23.6216C25.2656 23.3006 25.5257 23.0322 25.8467 22.8164C26.1732 22.5951 26.5412 22.4069 26.9507 22.252C27.3657 22.097 27.7891 21.9338 28.2207 21.7622C28.5417 21.6349 28.7741 21.4468 28.918 21.1978C29.0674 20.9432 29.1421 20.6831 29.1421 20.4175C29.1421 20.008 29.0203 19.6815 28.7769 19.438C28.5389 19.189 28.2124 19.0645 27.7974 19.0645ZM36.4966 20.1353C36.7069 19.8143 36.931 19.5238 37.1689 19.2637C37.2686 19.153 37.3765 19.0451 37.4927 18.9399C37.6089 18.8348 37.7279 18.7407 37.8496 18.6577C37.9769 18.5747 38.1069 18.5083 38.2397 18.4585C38.3726 18.4087 38.5054 18.3838 38.6382 18.3838C38.9204 18.3838 39.1418 18.4696 39.3022 18.6411C39.4627 18.8071 39.543 19.0423 39.543 19.3467C39.543 19.5348 39.5264 19.7174 39.4932 19.8945C39.4655 20.0661 39.4074 20.2764 39.3188 20.5254H39.0864C39.0532 20.3538 38.9757 20.2127 38.854 20.1021C38.7323 19.9858 38.5552 19.9277 38.3228 19.9277C38.1512 19.9277 37.9824 19.9609 37.8164 20.0273C37.6504 20.0882 37.4871 20.1657 37.3267 20.2598C37.1717 20.3538 37.0223 20.4562 36.8784 20.5669C36.7401 20.6776 36.6128 20.7827 36.4966 20.8823V26.2695C36.4966 26.3415 36.4855 26.4272 36.4634 26.5269C36.4412 26.6265 36.3859 26.7205 36.2974 26.8091C36.2144 26.8976 36.0871 26.9723 35.9155 27.0332C35.7495 27.0996 35.5199 27.1328 35.2266 27.1328C34.9333 27.1328 34.7008 27.0968 34.5293 27.0249C34.3633 26.9585 34.236 26.8783 34.1475 26.7842C34.0589 26.6901 34.0036 26.5933 33.9814 26.4937C33.9593 26.394 33.9482 26.3138 33.9482 26.2529V19.8447C33.9482 19.6842 33.9095 19.5459 33.832 19.4297C33.7601 19.3079 33.6356 19.2471 33.4585 19.2471C33.3644 19.2471 33.2842 19.2637 33.2178 19.2969C33.1514 19.3301 33.0794 19.3771 33.002 19.438L32.8276 19.2305C32.9549 19.1253 33.096 19.0229 33.251 18.9233C33.4115 18.8182 33.583 18.7269 33.7656 18.6494C33.9482 18.5719 34.1447 18.5083 34.355 18.4585C34.5653 18.4087 34.7866 18.3838 35.019 18.3838C35.257 18.3838 35.459 18.417 35.625 18.4834C35.7965 18.5443 35.9349 18.6273 36.04 18.7324C36.1507 18.832 36.2365 18.9455 36.2974 19.0728C36.3582 19.2 36.4025 19.3301 36.4302 19.4629C36.4634 19.5902 36.4827 19.7147 36.4883 19.8364C36.4938 19.9526 36.4966 20.0522 36.4966 20.1353Z" fill="#13805A"/>
<path d="M50.6045 22.8304C50.3253 24.1342 49.3661 25.2052 48.1013 25.6256C47.716 25.7543 47.3125 25.82 46.9063 25.8202C46.113 25.8212 45.3395 25.5722 44.6957 25.1086C44.052 24.6449 43.5707 23.9902 43.3203 23.2374C43.1622 22.7675 43.099 22.2709 43.1343 21.7763C43.1697 21.2818 43.3029 20.7992 43.5263 20.3566C43.7475 19.9124 44.0547 19.5165 44.4299 19.1917C44.8051 18.867 45.241 18.6198 45.7123 18.4646C46.6113 18.1656 47.5898 18.2148 48.4543 18.6024L48.6413 18.2498C47.3887 17.476 45.8285 17.2908 44.4257 17.7574C43.1571 18.1792 42.1289 19.0692 41.5305 20.263C40.9321 21.4568 40.8353 22.8122 41.2577 24.079C41.5895 25.0759 42.227 25.943 43.0795 26.5571C43.9321 27.1712 44.9564 27.5011 46.0071 27.5C46.5435 27.5 47.0757 27.4134 47.5893 27.2428C48.5237 26.9339 49.346 26.3557 49.9528 25.5809C50.5596 24.8061 50.9238 23.8692 50.9997 22.888L50.6045 22.8304ZM48.1395 20.4206L47.1367 18.5438L46.6267 20.6392L44.5409 21.0492L46.4503 22.1334L46.1219 24.2926L47.7433 22.8178L49.7525 23.7818L48.7263 21.7764L50.3511 20.208L48.1395 20.4206Z" fill="#13805A"/>
<path d="M59.5044 26.2695C59.5044 26.3415 59.4933 26.4272 59.4712 26.5269C59.4491 26.6265 59.3937 26.7205 59.3052 26.8091C59.2222 26.8976 59.0949 26.9723 58.9233 27.0332C58.7518 27.0996 58.5194 27.1328 58.2261 27.1328C57.9328 27.1328 57.7004 27.0968 57.5288 27.0249C57.3628 26.9585 57.2355 26.8783 57.147 26.7842C57.064 26.6901 57.0114 26.5933 56.9893 26.4937C56.9671 26.394 56.9561 26.3138 56.9561 26.2529V20.3843C56.9561 20.3068 56.945 20.2293 56.9229 20.1519C56.9007 20.0688 56.8675 19.9941 56.8232 19.9277C56.779 19.8613 56.7236 19.8088 56.6572 19.77C56.5908 19.7257 56.5133 19.7036 56.4248 19.7036C56.2754 19.7036 56.1287 19.7479 55.9849 19.8364C55.841 19.9194 55.7054 20.0163 55.5781 20.127C55.4564 20.2376 55.3485 20.3483 55.2544 20.459C55.1659 20.5697 55.1022 20.6527 55.0635 20.708V26.2695C55.0635 26.3415 55.0524 26.4272 55.0303 26.5269C55.0081 26.6265 54.9528 26.7205 54.8643 26.8091C54.7812 26.8976 54.654 26.9723 54.4824 27.0332C54.3164 27.0996 54.0868 27.1328 53.7935 27.1328C53.5002 27.1328 53.2677 27.0968 53.0962 27.0249C52.9302 26.9585 52.8029 26.8783 52.7144 26.7842C52.6258 26.6901 52.5705 26.5933 52.5483 26.4937C52.5262 26.394 52.5151 26.3138 52.5151 26.2529V19.8447C52.5151 19.6842 52.4764 19.5459 52.3989 19.4297C52.327 19.3079 52.2025 19.2471 52.0254 19.2471C51.9313 19.2471 51.8511 19.2637 51.7847 19.2969C51.7183 19.3301 51.6463 19.3771 51.5688 19.438L51.3945 19.2305C51.5218 19.1253 51.6629 19.0229 51.8179 18.9233C51.9784 18.8182 52.1499 18.7269 52.3325 18.6494C52.5151 18.5719 52.7116 18.5083 52.9219 18.4585C53.1322 18.4087 53.3535 18.3838 53.5859 18.3838C53.9456 18.3838 54.2251 18.4447 54.4243 18.5664C54.6235 18.6826 54.7702 18.8237 54.8643 18.9897C54.9583 19.1558 55.0137 19.3301 55.0303 19.5127C55.0524 19.6898 55.0635 19.8392 55.0635 19.9609C55.3236 19.6676 55.603 19.4048 55.9019 19.1724C56.0236 19.0728 56.1564 18.9759 56.3003 18.8818C56.4497 18.7878 56.6019 18.7048 56.7568 18.6328C56.9118 18.5553 57.0723 18.4945 57.2383 18.4502C57.4043 18.4059 57.5703 18.3838 57.7363 18.3838C58.0573 18.3838 58.3312 18.4419 58.5581 18.5581C58.785 18.6743 58.9676 18.8154 59.106 18.9814C59.2443 19.1419 59.3439 19.3135 59.4048 19.4961C59.4712 19.6732 59.5044 19.8281 59.5044 19.9609C59.77 19.6676 60.0495 19.4048 60.3428 19.1724C60.4645 19.0728 60.5973 18.9759 60.7412 18.8818C60.8851 18.7878 61.0345 18.7048 61.1895 18.6328C61.3499 18.5553 61.5104 18.4945 61.6709 18.4502C61.8369 18.4059 62.0029 18.3838 62.1689 18.3838C62.4899 18.3838 62.7638 18.4447 62.9907 18.5664C63.2176 18.6826 63.4002 18.8376 63.5386 19.0312C63.6769 19.2249 63.7765 19.4435 63.8374 19.687C63.9038 19.9305 63.937 20.174 63.937 20.4175V25.5557C63.937 25.6055 63.9398 25.6608 63.9453 25.7217C63.9508 25.777 63.9647 25.8324 63.9868 25.8877C64.009 25.9375 64.0422 25.979 64.0864 26.0122C64.1362 26.0454 64.1999 26.062 64.2773 26.062C64.3825 26.062 64.4766 26.026 64.5596 25.9541C64.6426 25.8766 64.7201 25.7992 64.792 25.7217L64.9912 25.896C64.9137 26.0122 64.8114 26.1423 64.6841 26.2861C64.5568 26.4245 64.4046 26.5573 64.2275 26.6846C64.056 26.8118 63.854 26.917 63.6216 27C63.3947 27.0885 63.1374 27.1328 62.8496 27.1328C62.6061 27.1328 62.3931 27.0996 62.2104 27.0332C62.0334 26.9723 61.8812 26.8893 61.7539 26.7842C61.6322 26.6735 61.5409 26.5462 61.48 26.4023C61.4191 26.2529 61.3887 26.0952 61.3887 25.9292V20.3843C61.3887 20.3068 61.3776 20.2293 61.3555 20.1519C61.3333 20.0688 61.3001 19.9941 61.2559 19.9277C61.2171 19.8613 61.1646 19.8088 61.0981 19.77C61.0317 19.7257 60.9543 19.7036 60.8657 19.7036C60.7163 19.7036 60.5669 19.7479 60.4175 19.8364C60.2736 19.9194 60.138 20.0163 60.0107 20.127C59.889 20.2376 59.7839 20.3483 59.6953 20.459C59.6068 20.5697 59.5431 20.6527 59.5044 20.708V26.2695ZM69.8638 22.7002C69.8638 22.5618 69.8195 22.4567 69.731 22.3848C69.6424 22.3128 69.529 22.2769 69.3906 22.2769C69.1969 22.2769 69.0116 22.3211 68.8345 22.4097C68.6629 22.4982 68.5107 22.6283 68.3779 22.7998C68.2451 22.9714 68.14 23.1844 68.0625 23.439C67.985 23.688 67.9463 23.9785 67.9463 24.3105C67.9463 24.6315 67.9684 24.8971 68.0127 25.1074C68.0625 25.3177 68.1261 25.4865 68.2036 25.6138C68.2866 25.7355 68.3807 25.8213 68.4858 25.8711C68.591 25.9209 68.7017 25.9458 68.8179 25.9458C68.9618 25.9458 69.0973 25.9098 69.2246 25.8379C69.3519 25.7604 69.4626 25.6636 69.5566 25.5474C69.6507 25.4312 69.7254 25.3011 69.7808 25.1572C69.8361 25.0133 69.8638 24.8695 69.8638 24.7256V22.7002ZM68.5439 19.0645C68.3558 19.0645 68.1815 19.0866 68.021 19.1309C67.8605 19.1751 67.7222 19.2305 67.606 19.2969C67.4897 19.3633 67.3984 19.438 67.332 19.521C67.2656 19.5985 67.2324 19.6732 67.2324 19.7451C67.2324 19.8281 67.2739 19.889 67.3569 19.9277C67.4455 19.9609 67.5423 20.0024 67.6475 20.0522C67.7526 20.0965 67.8467 20.1629 67.9297 20.2515C68.0182 20.3345 68.0625 20.4645 68.0625 20.6416C68.0625 20.7578 68.0376 20.8657 67.9878 20.9653C67.9435 21.0594 67.8799 21.1452 67.7969 21.2227C67.7194 21.2946 67.6253 21.3527 67.5146 21.397C67.4095 21.4357 67.2988 21.4551 67.1826 21.4551C66.8727 21.4551 66.6209 21.3499 66.4272 21.1396C66.2391 20.9294 66.145 20.6499 66.145 20.3013C66.145 19.9637 66.2336 19.6759 66.4106 19.438C66.5877 19.1945 66.8174 18.9953 67.0996 18.8403C67.3874 18.6854 67.7111 18.5719 68.0708 18.5C68.4305 18.4225 68.7902 18.3838 69.1499 18.3838C69.5815 18.3838 69.9938 18.4308 70.3867 18.5249C70.7796 18.619 71.1255 18.7684 71.4243 18.9731C71.7287 19.1779 71.9694 19.438 72.1465 19.7534C72.3291 20.0688 72.4204 20.4507 72.4204 20.8989V25.5889C72.4204 25.6387 72.4232 25.694 72.4287 25.7549C72.4342 25.8158 72.4481 25.8711 72.4702 25.9209C72.4924 25.9707 72.5256 26.0122 72.5698 26.0454C72.6141 26.0786 72.6777 26.0952 72.7607 26.0952C72.8604 26.0952 72.9517 26.0592 73.0347 25.9873C73.1232 25.9098 73.2007 25.8324 73.2671 25.7549L73.4746 25.9292C73.3916 26.0454 73.292 26.1727 73.1758 26.311C73.0596 26.4494 72.9185 26.5794 72.7524 26.7012C72.5864 26.8229 72.3927 26.9253 72.1714 27.0083C71.95 27.0913 71.6982 27.1328 71.416 27.1328C71.0674 27.1328 70.7575 27.0304 70.4863 26.8257C70.2152 26.6154 70.0381 26.2944 69.9551 25.8628C69.778 26.1007 69.5926 26.3 69.3989 26.4604C69.2108 26.6209 69.0171 26.751 68.8179 26.8506C68.6187 26.9502 68.4167 27.0221 68.2119 27.0664C68.0127 27.1107 67.8107 27.1328 67.606 27.1328C67.3403 27.1328 67.083 27.0913 66.834 27.0083C66.585 26.9253 66.3608 26.7952 66.1616 26.6182C65.9679 26.4355 65.8102 26.2004 65.6885 25.9126C65.5723 25.6248 65.5142 25.2734 65.5142 24.8584C65.5142 24.3548 65.6138 23.9425 65.813 23.6216C66.0122 23.3006 66.2723 23.0322 66.5933 22.8164C66.9198 22.5951 67.2878 22.4069 67.6973 22.252C68.1123 22.097 68.5356 21.9338 68.9673 21.7622C69.2882 21.6349 69.5207 21.4468 69.6646 21.1978C69.814 20.9432 69.8887 20.6831 69.8887 20.4175C69.8887 20.008 69.7669 19.6815 69.5234 19.438C69.2855 19.189 68.959 19.0645 68.5439 19.0645ZM77.1602 19.9609C77.3649 19.6676 77.5973 19.4048 77.8574 19.1724C77.9626 19.0728 78.0788 18.9759 78.2061 18.8818C78.3389 18.7878 78.4772 18.7048 78.6211 18.6328C78.7705 18.5553 78.9255 18.4945 79.0859 18.4502C79.252 18.4059 79.4207 18.3838 79.5923 18.3838C79.9631 18.3838 80.2951 18.4557 80.5884 18.5996C80.8817 18.7435 81.1279 18.9842 81.3271 19.3218C81.5264 19.6593 81.6785 20.1076 81.7837 20.6665C81.8888 21.2199 81.9414 21.9089 81.9414 22.7334C81.9414 23.5358 81.8695 24.2331 81.7256 24.8252C81.5817 25.4173 81.3936 25.9209 81.1611 26.3359C80.9287 26.751 80.6659 27.0885 80.3726 27.3486C80.0793 27.6143 79.7832 27.8218 79.4844 27.9712C79.1855 28.1206 78.8978 28.223 78.6211 28.2783C78.3444 28.3392 78.1064 28.3724 77.9072 28.3779L77.8242 28.0376C78.0732 27.9767 78.2946 27.8633 78.4883 27.6973C78.682 27.5312 78.8452 27.2601 78.978 26.8838C79.1108 26.502 79.2104 25.9901 79.2769 25.3481C79.3488 24.7062 79.3848 23.8789 79.3848 22.8662C79.3848 22.1689 79.3516 21.6128 79.2852 21.1978C79.2243 20.7772 79.1413 20.459 79.0361 20.2432C78.9365 20.0218 78.8203 19.8779 78.6875 19.8115C78.5602 19.7396 78.4302 19.7036 78.2974 19.7036C78.1369 19.7036 77.9958 19.7479 77.874 19.8364C77.7523 19.9194 77.6444 20.0163 77.5503 20.127C77.4618 20.2376 77.3843 20.3483 77.3179 20.459C77.257 20.5697 77.2044 20.6527 77.1602 20.708V26.2529C77.1602 26.3249 77.1491 26.4134 77.127 26.5186C77.1048 26.6182 77.0495 26.715 76.9609 26.8091C76.8779 26.8976 76.7507 26.9723 76.5791 27.0332C76.4131 27.0996 76.1834 27.1328 75.8901 27.1328C75.5968 27.1328 75.3644 27.0968 75.1929 27.0249C75.0213 26.9585 74.8913 26.8783 74.8027 26.7842C74.7197 26.6901 74.6672 26.5933 74.645 26.4937C74.6229 26.394 74.6118 26.3138 74.6118 26.2529V15.5449C74.6118 15.3844 74.5731 15.2461 74.4956 15.1299C74.4237 15.0081 74.2992 14.9473 74.1221 14.9473C74.028 14.9473 73.945 14.9639 73.873 14.9971C73.8066 15.0247 73.7347 15.069 73.6572 15.1299L73.4912 14.9307C73.6185 14.8255 73.7596 14.7231 73.9146 14.6235C74.0695 14.5184 74.2383 14.4271 74.4209 14.3496C74.609 14.2721 74.8083 14.2085 75.0186 14.1587C75.2288 14.1089 75.4502 14.084 75.6826 14.084C76.0423 14.084 76.3218 14.1338 76.521 14.2334C76.7202 14.3275 76.8669 14.4465 76.9609 14.5903C77.055 14.7287 77.1104 14.8781 77.127 15.0386C77.1491 15.1935 77.1602 15.3319 77.1602 15.4536V19.9609Z" fill="#13805A"/>
</svg>
