<svg width="20" height="20" viewBox="0 0 20 20" fill="none" xmlns="http://www.w3.org/2000/svg">
<path d="M19.2088 10.6608C18.6504 13.2684 16.732 15.4104 14.2024 16.2512C13.4318 16.5085 12.6248 16.6399 11.8124 16.6404C10.2257 16.6425 8.67871 16.1445 7.39122 15.2172C6.10372 14.2898 5.14119 12.9804 4.64038 11.4748C4.32415 10.535 4.19773 9.54173 4.26845 8.55267C4.33918 7.56361 4.60564 6.59845 5.05238 5.7132C5.49485 4.82481 6.10906 4.03295 6.8595 3.38344C7.60994 2.73393 8.48171 2.23966 9.42438 1.9292C11.2224 1.33129 13.1793 1.42964 14.9084 2.2048L15.2824 1.4996C12.7772 -0.0480019 9.65678 -0.418402 6.85118 0.514798C4.31398 1.3584 2.25758 3.1384 1.06078 5.526C-0.13602 7.9136 -0.32962 10.6244 0.51518 13.158C1.1788 15.1519 2.45367 16.886 4.15878 18.1142C5.86389 19.3424 7.91258 20.0022 10.014 20C11.0868 20 12.1512 19.8268 13.1784 19.4856C15.0472 18.8679 16.6918 17.7115 17.9053 16.1619C19.1189 14.6122 19.8474 12.7384 19.9992 10.776L19.2088 10.6608ZM14.2788 5.8412L12.2732 2.0876L11.2532 6.2784L7.08158 7.0984L10.9004 9.2668L10.2436 13.5852L13.4864 10.6356L17.5048 12.5636L15.4524 8.5528L18.702 5.416L14.2788 5.8412Z" fill="#13805A"/>
</svg>
