<svg width="24" height="24" viewBox="0 0 24 24" fill="none" xmlns="http://www.w3.org/2000/svg">
<path d="M11.5001 18C15.5001 18 18.9601 15.78 20.7401 12.5C18.9601 9.22 15.5001 7 11.5001 7C7.50014 7 4.04014 9.22 2.26014 12.5C4.04014 15.78 7.50014 18 11.5001 18ZM11.5001 6C16.0601 6 20.0001 8.65 21.8601 12.5C20.0001 16.35 16.0601 19 11.5001 19C6.94014 19 3.00014 16.35 1.14014 12.5C3.00014 8.65 6.94014 6 11.5001 6ZM11.5001 8C14.0001 8 16.0001 10 16.0001 12.5C16.0001 15 14.0001 17 11.5001 17C9.00014 17 7.00014 15 7.00014 12.5C7.00014 10 9.00014 8 11.5001 8ZM11.5001 9C10.5719 9 9.68164 9.36875 9.02526 10.0251C8.36889 10.6815 8.00014 11.5717 8.00014 12.5C8.00014 13.4283 8.36889 14.3185 9.02526 14.9749C9.68164 15.6313 10.5719 16 11.5001 16C12.4284 16 13.3186 15.6313 13.975 14.9749C14.6314 14.3185 15.0001 13.4283 15.0001 12.5C15.0001 11.5717 14.6314 10.6815 13.975 10.0251C13.3186 9.36875 12.4284 9 11.5001 9Z" fill="#1865FF"/>
</svg>
