<svg width="24" height="24" viewBox="0 0 24 24" fill="none" xmlns="http://www.w3.org/2000/svg">
<path d="M12 12.75C15.942 12.75 19.987 15.313 20.249 20.462C20.259 20.6605 20.1899 20.8548 20.0568 21.0024C19.9237 21.15 19.7374 21.2387 19.539 21.249C17.459 21.355 7.82596 21.42 4.46196 21.249C4.26332 21.2389 4.07682 21.1503 3.94348 21.0027C3.81014 20.8552 3.74089 20.6606 3.75096 20.462C4.01296 15.314 8.05796 12.75 12 12.75ZM12 3.75C11.0054 3.75 10.0516 4.14509 9.34831 4.84835C8.64505 5.55161 8.24996 6.50544 8.24996 7.5C8.24996 8.49456 8.64505 9.44839 9.34831 10.1517C10.0516 10.8549 11.0054 11.25 12 11.25C12.9945 11.25 13.9484 10.8549 14.6516 10.1517C15.3549 9.44839 15.75 8.49456 15.75 7.5C15.75 6.50544 15.3549 5.55161 14.6516 4.84835C13.9484 4.14509 12.9945 3.75 12 3.75Z" fill="black"/>
</svg>
