<svg width="24" height="25" viewBox="0 0 24 25" fill="none" xmlns="http://www.w3.org/2000/svg">
<path d="M18.2199 21.6911H5.77994C5.43316 21.677 5.09256 21.5946 4.77765 21.4487C4.46274 21.3028 4.17969 21.0962 3.9447 20.8408C3.70971 20.5853 3.52739 20.2861 3.40818 19.9601C3.28896 19.6342 3.23519 19.2879 3.24994 18.9411V15.9411C3.24994 15.7422 3.32896 15.5515 3.46961 15.4108C3.61027 15.2702 3.80103 15.1911 3.99994 15.1911C4.19886 15.1911 4.38962 15.2702 4.53027 15.4108C4.67093 15.5515 4.74994 15.7422 4.74994 15.9411V18.9411C4.72412 19.2381 4.81359 19.5335 4.99977 19.7663C5.18596 19.999 5.45459 20.1512 5.74994 20.1911H18.2199C18.5153 20.1512 18.7839 19.999 18.9701 19.7663C19.1563 19.5335 19.2458 19.2381 19.2199 18.9411V15.9411C19.2199 15.7422 19.299 15.5515 19.4396 15.4108C19.5803 15.2702 19.771 15.1911 19.9699 15.1911C20.1689 15.1911 20.3596 15.2702 20.5003 15.4108C20.6409 15.5515 20.7199 15.7422 20.7199 15.9411V18.9411C20.7499 19.6365 20.504 20.3156 20.0358 20.8306C19.5676 21.3456 18.915 21.6549 18.2199 21.6911ZM15.9999 9.69114C15.9014 9.69161 15.8038 9.67239 15.7128 9.63461C15.6217 9.59683 15.5392 9.54125 15.4699 9.47114L11.9999 6.00114L8.52994 9.47114C8.38777 9.60362 8.19972 9.67575 8.00542 9.67232C7.81112 9.66889 7.62573 9.59018 7.48832 9.45276C7.35091 9.31535 7.2722 9.12997 7.26877 8.93567C7.26534 8.74136 7.33746 8.55332 7.46994 8.41114L11.4699 4.41114C11.6106 4.27069 11.8012 4.1918 11.9999 4.1918C12.1987 4.1918 12.3893 4.27069 12.5299 4.41114L16.5299 8.41114C16.6704 8.55177 16.7493 8.74239 16.7493 8.94114C16.7493 9.13989 16.6704 9.33052 16.5299 9.47114C16.4607 9.54125 16.3781 9.59683 16.2871 9.63461C16.1961 9.67239 16.0985 9.69161 15.9999 9.69114Z" fill="black"/>
<path d="M12 16.6911C11.8019 16.6885 11.6126 16.6087 11.4725 16.4686C11.3324 16.3285 11.2526 16.1392 11.25 15.9411V4.94113C11.25 4.74222 11.329 4.55145 11.4697 4.4108C11.6103 4.27015 11.8011 4.19113 12 4.19113C12.1989 4.19113 12.3897 4.27015 12.5303 4.4108C12.671 4.55145 12.75 4.74222 12.75 4.94113V15.9411C12.7474 16.1392 12.6676 16.3285 12.5275 16.4686C12.3874 16.6087 12.1981 16.6885 12 16.6911Z" fill="black"/>
</svg>
