<svg width="15" height="16" viewBox="0 0 15 16" fill="none" xmlns="http://www.w3.org/2000/svg">
<path d="M5.31255 11.1177C3.83061 11.1177 2.57455 10.6032 1.54436 9.57412C0.514786 8.54571 0 7.29061 0 5.80883C0 4.32705 0.514786 3.07165 1.54436 2.04262C2.57393 1.01359 3.82999 0.499383 5.31255 0.500001C6.79511 0.500618 8.05087 1.01513 9.07982 2.04355C10.1088 3.07196 10.6236 4.32705 10.6242 5.80883C10.6242 6.45244 10.5102 7.07536 10.2821 7.67758C10.0541 8.2798 9.75436 8.79494 9.38295 9.22298L14.8605 14.6958C14.947 14.7823 14.9934 14.8888 14.9996 15.0154C15.0051 15.1408 14.9588 15.2529 14.8605 15.3518C14.7616 15.4506 14.6522 15.5 14.5324 15.5C14.4125 15.5 14.3031 15.4506 14.2042 15.3518L8.72757 9.87801C8.26408 10.2727 7.73106 10.5781 7.12852 10.7943C6.52598 11.0105 5.92035 11.1186 5.31163 11.1186M5.31163 10.1921C6.54143 10.1921 7.57996 9.76899 8.42723 8.92279C9.27387 8.07659 9.6972 7.0386 9.6972 5.80883C9.6972 4.57906 9.27418 3.54138 8.42815 2.6958C7.58212 1.85022 6.5439 1.42712 5.31348 1.4265C4.08306 1.4265 3.04453 1.8496 2.19788 2.6958C1.35124 3.542 0.927604 4.57968 0.926986 5.80883C0.926368 7.03799 1.34969 8.07566 2.19696 8.92187C3.04422 9.76807 4.08244 10.1912 5.31163 10.1912" fill="#13805A"/>
</svg>
