<svg width="15" height="15" viewBox="0 0 15 15" fill="none" xmlns="http://www.w3.org/2000/svg">
<path d="M9.28 8.16688L7.8125 7.31938V4.375C7.8125 4.29212 7.77958 4.21263 7.72097 4.15403C7.66237 4.09542 7.58288 4.0625 7.5 4.0625C7.41712 4.0625 7.33763 4.09542 7.27903 4.15403C7.22042 4.21263 7.1875 4.29212 7.1875 4.375V7.5C7.1875 7.55485 7.20194 7.60874 7.22937 7.65625C7.2568 7.70375 7.29625 7.7432 7.34375 7.77062L8.9675 8.70812C9.00293 8.72888 9.04212 8.74239 9.08282 8.74787C9.12351 8.75335 9.16488 8.75069 9.20454 8.74005C9.24419 8.72941 9.28134 8.711 9.31382 8.68588C9.3463 8.66077 9.37347 8.62945 9.39375 8.59375C9.43524 8.52205 9.44656 8.43681 9.42524 8.35677C9.40391 8.27672 9.35167 8.20842 9.28 8.16688ZM7.5 1.25C4.04813 1.25 1.25 4.04813 1.25 7.5C1.25 10.9519 4.04813 13.75 7.5 13.75C10.95 13.7463 13.7463 10.95 13.75 7.5C13.75 4.04813 10.9519 1.25 7.5 1.25ZM7.5 13.125C6.76131 13.125 6.02986 12.9795 5.34741 12.6968C4.66495 12.4141 4.04485 11.9998 3.52252 11.4775C3.00019 10.9551 2.58586 10.3351 2.30318 9.65259C2.02049 8.97014 1.875 8.23869 1.875 7.5C1.875 6.76131 2.02049 6.02986 2.30318 5.34741C2.58586 4.66495 3.00019 4.04485 3.52252 3.52252C4.04485 3.00019 4.66495 2.58586 5.34741 2.30318C6.02986 2.02049 6.76131 1.875 7.5 1.875C8.99133 1.87665 10.4211 2.46982 11.4756 3.52435C12.5302 4.57889 13.1233 6.00867 13.125 7.5C13.125 8.99184 12.5324 10.4226 11.4775 11.4775C10.4226 12.5324 8.99184 13.125 7.5 13.125Z" fill="black"/>
</svg>
